<?xml version="1.0" encoding="UTF-8" standalone="no"?>
<!-- Created with Inkscape (http://www.inkscape.org/) -->

<svg
   xmlns:dc="http://purl.org/dc/elements/1.1/"
   xmlns:cc="http://creativecommons.org/ns#"
   xmlns:rdf="http://www.w3.org/1999/02/22-rdf-syntax-ns#"
   xmlns:svg="http://www.w3.org/2000/svg"
   xmlns="http://www.w3.org/2000/svg"
   version="1.1"
   width="728"
   height="120"
   id="svg2993">
  <defs
     id="defs2995" />
  <metadata
     id="metadata2998">
    <rdf:RDF>
      <cc:Work
         rdf:about="">
        <dc:format>image/svg+xml</dc:format>
        <dc:type
           rdf:resource="http://purl.org/dc/dcmitype/StillImage" />
        <dc:title></dc:title>
      </cc:Work>
    </rdf:RDF>
  </metadata>
  <g
     transform="translate(0,30)"
     id="layer1">
    <path
       d="m 119.125,6.84375 c -4.56962,0 -8.25,3.45807 -8.25,7.78125 0,1.769722 0.6095,3.43887 1.65625,4.75 -3.87525,0.650878 -6.8125,3.865566 -6.8125,7.71875 0,0.284804 0.0311,0.535568 0.0625,0.8125 l -55,16.96875 c -1.406715,-1.640411 -3.438508,-2.6875 -5.71875,-2.6875 -4.241996,0 -7.6875,3.589992 -7.6875,8 0,3.13524 1.720888,5.849648 4.25,7.15625 -1.774434,1.464284 -2.90625,3.613852 -2.90625,6.03125 0,0.397297 0.03517,0.77451 0.09375,1.15625 -0.465339,-0.09169 -0.945018,-0.125 -1.4375,-0.125 -0.02809,0 -0.06573,-3.13e-4 -0.09375,0 0.05156,-0.341145 0.09375,-0.676563 0.09375,-1.03125 0,-2.81362 -1.666057,-5.253235 -4.125,-6.46875 1.329957,-1.487345 2.125,-3.496596 2.125,-5.6875 0,-4.601746 -3.57357,-8.34375 -8,-8.34375 -4.42643,0 -8.03125,3.742004 -8.03125,8.34375 0,1.70353 0.499767,3.274078 1.34375,4.59375 -1.178884,-0.708975 -2.540129,-1.125 -4,-1.125 -4.42643,0 -8.03125,3.742004 -8.03125,8.34375 0,4.601747 3.60482,8.3125 8.03125,8.3125 2.82185,0 5.290659,-1.521103 6.71875,-3.8125 1.388439,1.885442 3.673885,3.125 6.28125,3.125 0.139885,0 0.299455,-0.02425 0.4375,-0.03125 -0.05332,0.354307 -0.09375,0.693459 -0.09375,1.0625 0,4.026529 3.286189,7.3125 7.34375,7.3125 4.057561,0 7.34375,-3.285971 7.34375,-7.3125 0,-0.236905 -0.009,-0.456383 -0.03125,-0.6875 0.761118,0.218458 1.53951,0.34375 2.375,0.34375 3.44374,0 6.411294,-1.965611 7.6875,-4.8125 L 99,82.59375 c -0.228044,0.732729 -0.375,1.511988 -0.375,2.3125 0,3.438452 2.25179,6.383491 5.46875,7.65625 -0.0674,0.434959 -0.125,0.889016 -0.125,1.34375 0,3.048657 1.58731,5.735049 3.9375,7.1875 -3.2687,1.24299 -5.59375,4.34689 -5.59375,8 0,4.74531 3.92464,8.59375 8.75,8.59375 4.82535,0 8.71875,-3.84844 8.71875,-8.59375 0,-3.2624 -1.87018,-6.07626 -4.59375,-7.53125 1.52604,-0.69293 2.80196,-1.87472 3.65625,-3.34375 0.0981,4.25991 3.86667,7.6875 8.5,7.6875 4.63334,0 8.37138,-3.42762 8.46875,-7.6875 l 66.375,-14.0625 c 1.43917,2.450113 4.06463,4.0625 7.09375,4.0625 2.35945,0 4.46284,-0.99234 5.96875,-2.59375 1.46503,2.724945 4.36626,4.5625 7.71875,4.5625 4.82535,0 8.75,-3.84844 8.75,-8.59375 0,-3.436162 -2.06739,-6.406771 -5.03125,-7.78125 2.1638,-1.602063 3.59375,-4.215433 3.59375,-7.1875 0,-3.390205 -1.8051,-6.330245 -4.5,-7.8125 0.45618,-1.071364 0.75,-2.228191 0.75,-3.46875 0,-1.638562 -0.44612,-3.157432 -1.21875,-4.46875 L 274.625,38.90625 c 1.06265,3.038247 3.73552,5.305231 7,5.6875 -1.44833,1.56945 -2.3125,3.649583 -2.3125,5.9375 0,4.880889 4.01299,8.84375 8.96875,8.84375 4.95577,0 8.96875,-3.962861 8.96875,-8.84375 0,-4.631185 -3.61525,-8.435892 -8.21875,-8.8125 1.31849,-1.513646 2.09375,-3.512295 2.09375,-5.6875 0,-0.81291 -0.13496,-1.598396 -0.34375,-2.34375 0.31776,-0.181814 0.61731,-0.373351 0.90625,-0.59375 0.44323,2.931223 2.45368,5.351484 5.21875,6.46875 0.33793,2.18975 1.50935,4.098019 3.1875,5.375 0.0224,4.995921 3.819,9.03125 8.5,9.03125 2.62594,0 4.97933,-1.285882 6.53125,-3.28125 l 59.5625,25.1875 c -0.31106,0.976947 -0.5,2.039957 -0.5,3.125 0,5.46734 4.29042,9.875 9.5625,9.875 0.49337,0 0.9643,-0.01891 1.4375,-0.09375 -0.2405,0.82407 -0.375,1.695531 -0.375,2.59375 0,5.272078 4.43891,9.53125 9.90625,9.53125 1.41632,0 2.75042,-0.29583 3.96875,-0.8125 1.31088,4.1414 5.52516,7.1875 10.53125,7.1875 5.58068,0 10.15867,-3.7837 10.84375,-8.65625 L 566.40625,76.1875 c 0.41602,4.979736 4.44718,8.98315 9.65625,9.6875 -1.2049,1.742283 -1.90625,3.83909 -1.90625,6.09375 0,6.05313 5.09536,10.96875 11.34375,10.96875 6.24839,0 11.3125,-4.91562 11.3125,-10.96875 0,-5.479592 -4.1719,-10.001289 -9.59375,-10.8125 1.01254,-1.457814 1.66526,-3.165839 1.8125,-5 L 677,73.3125 c 0.12164,0.05786 0.25099,0.103188 0.375,0.15625 -1.08216,1.662469 -1.71875,3.618472 -1.71875,5.75 0,5.857864 4.73589,10.625 10.59375,10.625 5.85786,0 10.625,-4.767136 10.625,-10.625 0,-4.512013 -2.84102,-8.342254 -6.8125,-9.875 1.16662,-1.817177 1.84375,-4.006274 1.84375,-6.375 0,-2.73367 -0.89316,-5.231824 -2.40625,-7.1875 1.97704,-0.257949 3.7847,-1.019447 5.28125,-2.15625 -0.007,0.167893 -0.0312,0.330342 -0.0312,0.5 0,6.443651 5.2126,11.65625 11.65625,11.65625 6.44365,0 11.65625,-5.212599 11.65625,-11.65625 0,-6.443651 -5.2126,-11.65625 -11.65625,-11.65625 -2.8191,0 -5.38946,0.991846 -7.40625,2.65625 -0.0653,-4.252571 -2.74798,-7.867449 -6.53125,-9.5 1.42528,-1.859705 2.28125,-4.125563 2.28125,-6.59375 0,-6.248389 -5.39234,-11.3125 -12.03125,-11.3125 -6.63891,0 -12.03125,5.064111 -12.03125,11.3125 0,4.925138 3.36377,9.102421 8.03125,10.65625 -1.04382,1.624006 -1.65625,3.540458 -1.65625,5.59375 0,2.47571 0.87471,4.757755 2.34375,6.5625 -4.95432,0.95243 -8.71875,5.566064 -8.71875,11.125 0,2.69277 0.90242,5.151149 2.375,7.09375 l -84.40625,2.5 c -1.31258,-4.524517 -5.69694,-7.875 -10.9375,-7.875 -5.27677,0 -9.72158,3.396417 -11,7.96875 l -146.84375,22.5 c -1.11526,-4.399035 -5.44769,-7.6875 -10.65625,-7.6875 -1.81627,0 -3.5542,0.387437 -5.0625,1.09375 -1.24409,-3.900681 -4.98434,-6.75 -9.4375,-6.75 -0.63865,0 -1.27002,0.04484 -1.875,0.15625 0.28639,-0.94118 0.4375,-1.929415 0.4375,-2.96875 0,-0.463352 -0.0344,-0.928586 -0.0937,-1.375 1.59586,0.877952 3.43932,1.375 5.40625,1.375 4.11992,0 7.69028,-2.216596 9.5625,-5.46875 1.56469,3.607632 5.56013,6.15625 10.25,6.15625 5.9556,0 10.78288,-4.126603 10.9375,-9.28125 L 475.15625,51.25 c 1.89718,2.258924 4.74065,3.6875 7.9375,3.6875 5.71208,0 10.34375,-4.587398 10.34375,-10.25 0,-3.63003 -1.91036,-6.803034 -4.78125,-8.625 2.75549,-1.904158 4.5625,-5.08463 4.5625,-8.6875 0,-5.82851 -4.73399,-10.5625 -10.5625,-10.5625 -2.8194,0 -5.38819,1.104955 -7.28125,2.90625 -0.98903,-4.511033 -5.28062,-7.90625 -10.40625,-7.90625 -5.85786,0 -10.59375,4.43891 -10.59375,9.90625 0,5.46734 4.73589,9.90625 10.59375,9.90625 2.81189,0 5.3518,-1.051964 7.25,-2.71875 0.45982,3.135445 2.29308,5.833675 4.875,7.4375 -2.625,1.859528 -4.34375,4.901537 -4.34375,8.34375 0,1.166768 0.20036,2.298798 0.5625,3.34375 L 428.65625,66.8125 c -1.55659,-3.621488 -5.54872,-6.21875 -10.25,-6.21875 -3.96021,0 -7.41787,1.852352 -9.34375,4.59375 -1.39662,-4.303194 -5.5612,-7.40625 -10.46875,-7.40625 -6.05313,0 -10.96875,4.735886 -10.96875,10.59375 0,0.56049 0.0697,1.119256 0.15625,1.65625 -1.22493,-0.592821 -2.59031,-0.9375 -4.03125,-0.9375 -3.02154,0 -5.71962,1.446593 -7.46875,3.71875 l -59.59375,-25.25 c 0.24155,-0.844153 0.375,-1.726201 0.375,-2.65625 0,-3.170758 -1.47678,-5.968979 -3.78125,-7.59375 -0.30581,-2.756432 -1.94805,-5.13059 -4.25,-6.40625 -0.30533,-2.603258 -1.87154,-4.778107 -4.09375,-6.09375 1.11317,-1.663928 1.75,-3.749603 1.75,-5.96875 0,-5.558791 -4.10131,-10.0625 -9.1875,-10.0625 -5.0586,0 -9.17435,4.48282 -9.21875,10 -0.52562,-0.102764 -1.06856,-0.15625 -1.625,-0.15625 -4.56453,0 -8.28125,3.619601 -8.28125,8.09375 0,0.606542 0.0898,1.212772 0.21875,1.78125 -2.45415,1.333056 -4.1775,3.808829 -4.4375,6.75 l -51.25,12.96875 c -1.44799,-1.058 -3.23475,-1.6875 -5.15625,-1.6875 -4.41832,0 -8.04026,3.287088 -8.625,7.59375 -1.27283,-0.767968 -2.75366,-1.21875 -4.34375,-1.21875 -1.5411,0 -2.97629,0.462756 -4.21875,1.1875 L 143.90625,43.625 c 0.0346,-0.290665 0.0625,-0.606841 0.0625,-0.90625 0,-2.379547 -1.10388,-4.501836 -2.875,-5.9375 2.72813,-1.279644 4.59375,-3.923928 4.59375,-7 0,-4.323181 -3.71165,-7.84375 -8.28125,-7.84375 -0.68791,0 -1.36101,0.100326 -2,0.25 -0.0188,-4.217858 -3.6049,-7.671272 -8.03125,-7.8125 -0.14975,-4.198793 -3.7754,-7.53125 -8.25,-7.53125 z m 3,21.59375 c 1.38587,0.990303 3.12941,1.59375 5,1.59375 0.68792,0 1.32973,-0.03781 1.96875,-0.1875 0.0107,2.365967 1.17477,4.446116 2.9375,5.875 -2.72813,1.279643 -4.65625,3.92393 -4.65625,7 0,4.323181 3.74289,7.84375 8.3125,7.84375 2.99221,0 5.60938,-1.498772 7.0625,-3.75 l 55.15625,9.75 c -0.9847,1.404697 -1.59375,3.0817 -1.59375,4.9375 0,4.74531 3.7738,8.59375 8.46875,8.59375 4.23936,0 7.76409,-3.147669 8.40625,-7.25 0.24055,0.151356 0.49459,0.309897 0.75,0.4375 -0.40806,1.033885 -0.625,2.157008 -0.625,3.34375 0,3.470856 1.88723,6.460541 4.6875,7.90625 -0.54714,0.371849 -1.05314,0.799389 -1.5,1.28125 -1.41266,-2.556119 -4.1143,-4.25 -7.21875,-4.25 -4.56452,0 -8.25,3.734022 -8.25,8.34375 0,0.317697 -0.002,0.629158 0.0312,0.9375 l -66,14.03125 c -1.16062,-2.439391 -3.56615,-4.217447 -6.53125,-4.59375 0.75959,-1.237548 1.15625,-2.687337 1.15625,-4.25 0,-4.474148 -3.59713,-8.125 -8.03125,-8.125 -2.47204,0 -4.65223,1.133291 -6.125,2.90625 -1.54123,-2.551493 -4.48832,-4.25 -7.875,-4.25 -2.82388,0 -5.37799,1.215915 -7.03125,3.09375 L 55.40625,63.3125 C 55.38773,60.023686 53.295667,57.20681 50.3125,56 51.801459,54.543643 52.75,52.480563 52.75,50.1875 c 0,-0.841295 -0.111753,-1.676004 -0.34375,-2.4375 l 54.4375,-16.71875 c 1.43652,2.317729 4.11113,3.875 7.15625,3.875 4.07284,0 7.43702,-2.802492 8.125,-6.46875 z M 23.34375,58.40625 c 0.152365,0.09163 0.310256,0.199971 0.46875,0.28125 -0.05948,0.06732 -0.09932,0.149397 -0.15625,0.21875 -0.09228,-0.168721 -0.209469,-0.338898 -0.3125,-0.5 z M 120,93.96875 c 0.0268,0.0057 0.0669,-0.0055 0.0937,0 -0.0351,0.05323 -0.0601,0.102202 -0.0937,0.15625 0.001,-0.05704 -2.7e-4,-0.09894 0,-0.15625 z"
       transform="translate(0,-30)"
       id="path3001"
       style="fill:none;stroke:#004040;stroke-width:1.36198986;stroke-linejoin:round;stroke-miterlimit:4;stroke-opacity:1;stroke-dasharray:none" />
  </g>
</svg>
